HIERARCHY
ROOT Hips
{
    OFFSET 0.000000 0.000000 0.000000
    CHANNELS 6 Xposition Yposition Zposition Zrotation Xrotation Yrotation
    JOINT Spine
    {
        OFFSET -0.000000 14.517291 0.000000
        CHANNELS 3 Zrotation Xrotation Yrotation
        JOINT Spine1
        {
            OFFSET -0.000000 37.558300 0.000000
            CHANNELS 3 Zrotation Xrotation Yrotation
            JOINT Neck
            {
                OFFSET -0.000000 37.404057 3.400369
                CHANNELS 3 Zrotation Xrotation Yrotation
                JOINT Head
                {
                    OFFSET -0.000000 24.785618 -3.540803
                    CHANNELS 3 Zrotation Xrotation Yrotation
                    End Site
                    {
                        OFFSET -0.000000 35.408028 0.000000
                    }
                }
            }
            JOINT LeftShoulder
            {
                OFFSET 6.992933 33.973492 -0.192664
                CHANNELS 3 Zrotation Xrotation Yrotation
                JOINT LeftArm
                {
                    OFFSET 21.527611 0.000000 0.000000
                    CHANNELS 3 Zrotation Xrotation Yrotation
                    JOINT LeftForeArm
                    {
                        OFFSET 56.353916 0.000000 0.000000
                        CHANNELS 3 Zrotation Xrotation Yrotation
                        JOINT LeftHand
                        {
                            OFFSET 47.774071 0.000000 0.000000
                            CHANNELS 3 Zrotation Xrotation Yrotation
                            End Site
                            {
                                OFFSET 26.556021 0.000000 0.000000
                            }
                        }
                    }
                }
            }
            JOINT RightShoulder
            {
                OFFSET -7.065357 33.973492 -0.192664
                CHANNELS 3 Zrotation Xrotation Yrotation
                JOINT RightArm
                {
                    OFFSET -21.527611 0.000000 0.000000
                    CHANNELS 3 Zrotation Xrotation Yrotation
                    JOINT RightForeArm
                    {
                        OFFSET -56.353916 0.000000 0.000000
                        CHANNELS 3 Zrotation Xrotation Yrotation
                        JOINT RightHand
                        {
                            OFFSET -47.774071 0.000000 0.000000
                            CHANNELS 3 Zrotation Xrotation Yrotation
                            End Site
                            {
                                OFFSET -26.556021 0.000000 0.000000
                            }
                        }
                    }
                }
            }
        }
    }
    JOINT LeftUpLeg
    {
        OFFSET 17.704014 0.000000 0.000000
        CHANNELS 3 Zrotation Xrotation Yrotation
        JOINT LeftLeg
        {
            OFFSET -0.000000 -81.181816 0.000000
            CHANNELS 3 Zrotation Xrotation Yrotation
            JOINT LeftFoot
            {
                OFFSET -0.000000 -62.821102 0.000000
                CHANNELS 3 Zrotation Xrotation Yrotation
                JOINT LeftToeBase
                {
                    OFFSET -0.000000 -11.507608 26.556021
                    CHANNELS 3 Zrotation Xrotation Yrotation
                    End Site
                    {
                        OFFSET -0.000000 0.000000 7.081605
                    }
                }
            }
        }
    }
    JOINT RightUpLeg
    {
        OFFSET -17.704014 0.000000 0.000000
        CHANNELS 3 Zrotation Xrotation Yrotation
        JOINT RightLeg
        {
            OFFSET -0.000000 -81.181816 0.000000
            CHANNELS 3 Zrotation Xrotation Yrotation
            JOINT RightFoot
            {
                OFFSET -0.000000 -62.821102 0.000000
                CHANNELS 3 Zrotation Xrotation Yrotation
                JOINT RightToeBase
                {
                    OFFSET -0.000000 -11.507608 26.556021
                    CHANNELS 3 Zrotation Xrotation Yrotation
                    End Site
                    {
                        OFFSET -0.000000 0.000000 7.081605
                    }
                }
            }
        }
    }
}
MOTION
Frames:    11
Frame Time:    0.008333
-10.129713    152.054306    -10.982975    -0.755065    0.618508    25.489046    0.881210    3.309958    14.728520    -4.211667    -4.371324    4.758462    1.606392    -0.970986    -12.656850    7.575783    5.906246    -12.756632    2.920460    1.556088    -7.557346    -42.235775    19.516394    -45.151672    -12.190475    -13.859986    -132.118515    3.547895    -38.899399    -5.729807    -7.605111    1.457772    9.833316    32.348854    -5.671736    70.090752    -43.162197    -51.614601    -13.141572    17.746550    -51.225845    36.174557    0.518979    -34.625015    -31.081974    -10.848047    22.916584    -22.514763    -10.485413    2.946294    30.250235    0.000000    0.000000    0.000000    5.965761    12.896922    -15.694378    2.897523    21.248135    -1.117615    -2.963112    -28.479998    -7.417324    0.000000    0.000000    0.000000    
-10.104824    152.051239    -11.004045    -0.764106    0.632435    25.520962    0.890216    3.303273    14.721704    -4.217924    -4.366988    4.756176    1.600598    -0.960092    -12.678917    7.593567    5.895863    -12.776354    2.911228    1.563811    -7.552114    -42.254932    19.540300    -45.121574    -12.195250    -13.845332    -132.112991    3.597138    -38.894840    -5.696027    -7.617248    1.480674    9.822085    32.341866    -5.637915    70.109909    -43.066975    -51.543591    -13.048126    17.792868    -51.109913    36.203362    0.505232    -34.638275    -31.090179    -10.845566    22.888462    -22.540438    -10.520014    2.941391    30.252420    0.000000    0.000000    0.000000    5.960748    12.880505    -15.684155    2.917537    21.243916    -1.159736    -2.981446    -28.486305    -7.413870    0.000000    0.000000    0.000000    
-10.078718    152.046799    -11.022376    -0.773869    0.646994    25.546965    0.898393    3.287430    14.716059    -4.215167    -4.355930    4.754838    1.567321    -0.947870    -12.695896    7.644149    5.894787    -12.784104    2.888407    1.572225    -7.552551    -42.278008    19.547297    -45.080162    -12.203108    -13.819091    -132.102814    3.561469    -38.882076    -5.712807    -7.641852    1.507514    9.814799    32.622784    -5.960812    70.203209    -42.407467    -51.440166    -12.752316    17.947893    -50.822926    36.396362    0.491926    -34.648399    -31.090231    -10.842114    22.857504    -22.530643    -10.516179    2.961119    30.217388    0.000000    0.000000    0.000000    5.955895    12.867361    -15.684947    2.926702    21.237459    -1.141533    -2.979801    -28.498066    -7.440342    0.000000    0.000000    0.000000    
-10.056412    152.041809    -11.039351    -0.784779    0.658277    25.573029    0.914142    3.269719    14.707910    -4.230315    -4.328257    4.752668    1.543083    -0.941006    -12.715236    7.706130    5.888198    -12.794450    2.876017    1.570792    -7.552657    -42.287804    19.579039    -45.052380    -12.203503    -13.835214    -132.096451    3.592005    -38.892960    -5.694214    -7.650602    1.516936    9.792159    32.611160    -5.932031    70.209419    -42.227921    -51.444103    -12.612450    17.978252    -50.768085    36.424313    0.478623    -34.657948    -31.095285    -10.829631    22.839474    -22.553215    -10.535239    2.956221    30.211182    0.000000    0.000000    0.000000    5.955201    12.857279    -15.670033    2.943183    21.226667    -1.150819    -2.991285    -28.510181    -7.471918    0.000000    0.000000    0.000000    
-10.030322    152.036926    -11.059287    -0.785502    0.677117    25.592350    0.910155    3.245040    14.698968    -4.227876    -4.297428    4.750816    1.513404    -0.931615    -12.729187    7.765302    5.877306    -12.798233    2.852576    1.585079    -7.544353    -42.287834    19.597254    -45.046364    -12.189447    -13.863435    -132.077866    3.560191    -38.878056    -5.694220    -7.680253    1.539159    9.793674    32.582470    -5.908849    70.191536    -42.019169    -51.417030    -12.456047    18.007240    -50.672119    36.486557    0.453529    -34.668900    -31.104301    -10.820360    22.817327    -22.563005    -10.547021    2.956772    30.203478    0.000000    0.000000    0.000000    5.937009    12.843813    -15.673593    2.957814    21.220451    -1.162658    -2.996804    -28.525286    -7.471610    0.000000    0.000000    0.000000    
-10.011939    152.032837    -11.076845    -0.790104    0.685646    25.608387    0.904555    3.229871    14.694013    -4.226163    -4.262271    4.750422    1.484586    -0.916810    -12.745989    7.851199    5.848580    -12.801427    2.840178    1.586263    -7.538363    -42.310928    19.596214    -45.040577    -12.192775    -13.843732    -132.056122    3.528199    -38.855656    -5.690184    -7.710479    1.559698    9.777138    32.586628    -5.904245    70.177605    -41.748207    -51.405945    -12.249119    18.037033    -50.580711    36.499702    0.438771    -34.673260    -31.102335    -10.811155    22.799999    -22.551439    -10.541064    2.972181    30.172188    0.000000    0.000000    0.000000    5.935519    12.836435    -15.672499    2.961444    21.212410    -1.176634    -3.006315    -28.538448    -7.490247    0.000000    0.000000    0.000000    
-9.987862    152.029877    -11.091773    -0.786102    0.689876    25.621439    0.897553    3.217654    14.690638    -4.223308    -4.225969    4.750635    1.453330    -0.890662    -12.758270    7.934486    5.810496    -12.798927    2.809296    1.597319    -7.540512    -42.282780    19.636936    -45.040539    -12.181289    -13.906859    -132.042862    3.496468    -38.877083    -5.710378    -7.744817    1.593845    9.754268    32.554966    -5.880168    70.168564    -41.519485    -51.395050    -12.083925    18.058393    -50.506359    36.503246    0.418770    -34.666393    -31.125521    -10.810168    22.773003    -22.522732    -10.559580    2.973179    30.157726    0.000000    0.000000    0.000000    5.921370    12.835876    -15.661780    2.968365    21.213684    -1.190051    -2.994083    -28.557877    -7.483376    0.000000    0.000000    0.000000    
-9.973140    152.029037    -11.107238    -0.789319    0.696478    25.631399    0.887012    3.203508    14.687869    -4.218699    -4.187703    4.751151    1.435428    -0.876556    -12.772954    8.000854    5.776739    -12.802968    2.791280    1.602961    -7.542017    -42.290264    19.633324    -45.040379    -12.192286    -13.898200    -132.030121    3.487512    -38.883766    -5.715456    -7.776821    1.629105    9.727088    32.550220    -5.874322    70.162750    -41.248676    -51.365444    -11.885104    18.058029    -50.410545    36.473225    0.407171    -34.668755    -31.124437    -10.798886    22.759222    -22.537411    -10.561839    2.976281    30.166510    0.000000    0.000000    0.000000    5.924168    12.858636    -15.325895    3.101405    21.124899    -1.525943    -3.016562    -28.557701    -7.514948    0.000000    0.000000    0.000000    
-9.953486    152.027466    -11.124596    -0.794079    0.704124    25.638226    0.885066    3.175414    14.681703    -4.219041    -4.130716    4.751090    1.411503    -0.866709    -12.782906    8.081199    5.746292    -12.800108    2.772929    1.612289    -7.533072    -42.277843    19.649277    -45.063187    -12.187861    -13.930156    -132.013046    3.476462    -38.891651    -5.716961    -7.817212    1.665469    9.694095    32.519890    -5.839653    70.157623    -40.984295    -51.362335    -11.682282    18.128756    -50.318649    36.512146    0.396296    -34.677208    -31.125463    -10.799700    22.753155    -22.504574    -10.551735    2.990393    30.128538    0.000000    0.000000    0.000000    5.902758    12.819708    -15.634466    2.996182    21.210463    -1.190341    -3.012742    -28.578087    -7.519642    0.000000    0.000000    0.000000    
-9.941254    152.023483    -11.142004    -0.800795    0.707472    25.641449    0.876875    3.159809    14.676754    -4.206356    -4.084978    4.751461    1.392963    -0.861340    -12.788211    8.131767    5.719137    -12.796196    2.746096    1.614744    -7.529554    -42.262600    19.664715    -45.077759    -12.193091    -13.957896    -132.015106    3.551200    -38.925869    -5.644099    -7.875550    1.696993    9.668320    32.489262    -5.788235    70.135376    -40.772934    -51.412533    -11.503647    18.240919    -50.284824    36.531815    0.393252    -34.686520    -31.107021    -10.791239    22.755245    -22.503883    -10.561707    2.982128    30.113811    0.000000    0.000000    0.000000    5.909635    12.834583    -15.296009    3.117723    21.139801    -1.536035    -3.032618    -28.586081    -7.519772    0.000000    0.000000    0.000000    
-9.926818    152.018326    -11.159620    -0.809257    0.710831    25.633808    0.878587    3.147946    14.675139    -4.219355    -4.046307    4.751870    1.393414    -0.849767    -12.788614    8.184071    5.687769    -12.789571    2.743544    1.612660    -7.517080    -42.260757    19.700584    -45.096279    -12.179463    -14.007092    -132.011810    3.604250    -38.938778    -5.597811    -7.911054    1.730806    9.643242    32.439934    -5.723037    70.103531    -40.558140    -51.401409    -11.322605    18.326527    -50.194275    36.545040    0.396073    -34.701180    -31.093403    -10.792266    22.770870    -22.491278    -10.564875    2.968698    30.099106    0.000000    0.000000    0.000000    5.902035    12.821992    -15.290697    3.128611    21.151537    -1.530093    -3.033585    -28.599686    -7.535319    0.000000    0.000000    0.000000    
